<?xml version="1.0" standalone="no"?>
<!DOCTYPE svg PUBLIC "-//W3C//DTD SVG 20010904//EN"
 "http://www.w3.org/TR/2001/REC-SVG-20010904/DTD/svg10.dtd">
<svg version="1.0" xmlns="http://www.w3.org/2000/svg"
 width="512.000000pt" height="512.000000pt" viewBox="0 0 512.000000 512.000000"
 preserveAspectRatio="xMidYMid meet">

<g transform="translate(0.000000,512.000000) scale(0.100000,-0.100000)"
fill="#fff" stroke="none">
<path d="M2842 4899 c-74 -11 -231 -61 -282 -89 l-35 -19 80 -1 c232 -2 427
-65 540 -176 44 -44 105 -135 105 -158 0 -2 -69 -2 -152 1 -311 11 -576 -44
-831 -174 -246 -125 -430 -309 -515 -516 -228 -549 187 -1184 1143 -1747 187
-111 288 -233 316 -385 37 -200 -84 -396 -300 -486 -106 -44 -197 -61 -342
-61 -197 0 -387 42 -621 136 -759 305 -1235 785 -1364 1377 -29 132 -27 448 4
587 57 252 168 491 320 684 24 32 49 55 54 52 13 -8 86 -156 138 -282 l47
-113 46 95 c143 297 374 512 792 736 l99 54 -49 23 c-70 33 -224 79 -330 100
-109 21 -361 23 -480 4 -113 -18 -259 -56 -373 -96 -111 -40 -272 -108 -272
-115 0 -3 18 -15 39 -27 53 -30 161 -123 194 -166 l26 -35 -70 -46 c-406 -270
-637 -832 -591 -1433 66 -851 530 -1628 1257 -2109 636 -420 1408 -469 2084
-133 701 348 1079 986 890 1502 -42 117 -111 220 -213 322 -150 149 -292 235
-586 355 -560 228 -882 474 -983 748 -31 87 -29 200 5 274 49 105 157 186 299
224 66 17 236 23 295 10 l31 -7 12 -207 c7 -114 16 -210 19 -214 4 -4 315 -93
692 -198 377 -105 692 -193 701 -195 12 -4 36 55 118 295 57 165 101 303 98
306 -3 3 -67 36 -144 73 -206 101 -407 229 -518 332 -43 40 -43 40 -44 115 -2
136 -44 291 -121 445 -37 73 -134 224 -183 283 l-24 29 -6 -174 c-4 -96 -10
-186 -13 -201 -6 -26 -6 -26 -51 25 -144 166 -358 301 -560 353 -112 28 -289
39 -391 23z m667 -679 c155 -60 325 -179 442 -310 90 -100 89 -95 17 -119
-271 -90 -517 43 -560 303 -11 67 -4 156 13 156 5 0 45 -14 88 -30z"/>
</g>
</svg>
